<svg xmlns="http://www.w3.org/2000/svg" viewBox="0 0 18 18" width="18" height="18"><path fill="#EA4335" d="M17.64 9.205c0-.638-.057-1.252-.164-1.841H9v3.482h4.844a4.14 4.14 0 0 1-1.797 2.716v2.258h2.908c1.703-1.567 2.685-3.874 2.685-6.615z"/><path fill="#4285F4" d="M9 18c2.43 0 4.467-.806 5.956-2.174l-2.908-2.258c-.806.54-1.837.859-3.048.859-2.344 0-4.328-1.585-5.036-3.71H.956v2.332A9 9 0 0 0 9 18z"/><path fill="#FBBC05" d="M3.964 10.716A5.41 5.41 0 0 1 3.682 9c0-.595.102-1.173.282-1.716V4.952H.956A9 9 0 0 0 0 9c0 1.452.348 2.827.956 4.048l3.008-2.332z"/><path fill="#34A853" d="M9 3.574c1.321 0 2.508.454 3.441 1.345l2.582-2.582C13.463.891 11.43 0 9 0A9 9 0 0 0 .956 4.952l3.008 2.332C4.672 5.159 6.656 3.574 9 3.574z"/></svg>
